<svg version="1.1" id="Layer_1" xmlns="http://www.w3.org/2000/svg" xmlns:xlink="http://www.w3.org/1999/xlink" x="0px" y="0px"
	 width="100%" viewBox="0 0 500 500" enable-background="new 0 0 500 500" xml:space="preserve">
<path fill="#FFFFFF" opacity="1.000000" stroke="none" 
	d="
M338.000000,501.000000 
	C225.333359,501.000000 113.166718,501.000000 1.000060,501.000000 
	C1.000040,334.333405 1.000040,167.666794 1.000020,1.000150 
	C167.666565,1.000100 334.333130,1.000100 500.999756,1.000050 
	C500.999847,167.666519 500.999847,334.333038 500.999939,500.999786 
	C446.833344,501.000000 392.666656,501.000000 338.000000,501.000000 
M147.066544,291.984741 
	C147.066544,291.984741 147.075043,291.929901 147.023758,292.764679 
	C146.936615,296.317688 147.166565,299.606232 152.567719,299.116180 
	C152.821991,299.300293 152.993393,299.542938 153.028076,300.663879 
	C152.775208,303.709442 153.942474,305.346008 157.613464,304.938446 
	C157.613464,304.938446 157.989990,305.063049 158.004456,305.791229 
	C159.578552,309.447388 160.851440,313.444031 166.704666,313.233948 
	C169.795242,315.544525 172.885818,317.855103 176.005234,320.912323 
	C176.992203,322.641693 177.602081,324.851959 179.052963,325.989655 
	C181.328857,327.774261 184.254242,328.700745 186.759216,330.228912 
	C192.740448,333.877655 198.980301,335.903931 206.678406,333.975861 
	C207.113586,334.039337 207.548782,334.102844 208.099396,334.860474 
	C209.931198,336.017365 211.669495,337.371613 213.613144,338.292389 
	C218.542923,340.627747 223.462036,343.069458 228.604797,344.826355 
	C230.433441,345.451080 232.894989,344.223114 235.800140,343.889557 
	C236.528458,343.979187 237.256775,344.068817 238.107040,344.877045 
	C238.776291,345.544891 239.342911,346.621979 240.130142,346.819427 
	C252.722015,349.977600 265.220734,349.899017 277.451080,345.166992 
	C278.820648,344.637054 279.833679,343.185608 281.679993,341.971588 
	C282.777069,341.622681 283.874115,341.273804 285.293243,341.402802 
	C285.865326,340.964111 286.437408,340.525421 287.622070,339.749084 
	C290.407501,338.483246 293.192902,337.217438 296.408295,336.503571 
	C298.072968,336.088531 299.958984,336.038483 301.360168,335.188904 
	C305.301453,332.799194 309.508179,330.557281 312.760834,327.385895 
	C318.443878,321.844849 323.593597,315.737701 328.700195,309.644348 
	C329.499054,308.691162 328.891632,306.559326 329.088776,304.306946 
	C330.847931,301.530243 332.811218,298.860413 334.330231,295.958069 
	C340.305847,284.540497 345.482025,272.801910 348.456726,259.603729 
	C348.596741,258.668396 348.736755,257.733032 348.931427,255.966400 
	C349.928040,247.609131 351.464722,239.273911 351.807190,230.889908 
	C352.489227,214.193115 349.206238,198.020813 343.931366,181.429840 
	C343.341522,179.255753 342.107788,177.021500 342.304077,174.920883 
	C342.647827,171.241791 340.890869,170.281494 337.379272,169.626419 
	C336.274841,168.307755 335.170410,166.989105 334.025055,165.043121 
	C333.651672,164.352646 333.278290,163.662186 332.878784,162.272919 
	C323.887177,146.110504 309.912506,135.049606 293.961578,126.910316 
	C271.574829,115.487000 247.631805,112.152100 222.722763,116.980927 
	C202.310410,120.938034 184.240601,129.663467 169.206818,143.970947 
	C154.330872,158.128189 143.201324,174.885086 136.761230,194.586807 
	C129.965454,215.376602 127.950424,236.404236 132.942764,258.645020 
	C131.311523,262.302063 131.642944,265.299438 135.890198,267.674774 
	C135.916550,268.115723 135.942917,268.556641 135.289154,269.108246 
	C132.931931,271.928253 134.613495,272.650360 137.618561,273.092072 
	C137.836121,273.284515 137.997940,273.515930 138.032333,274.620148 
	C136.123260,282.676849 138.065475,286.449280 145.043533,288.411652 
	C145.043533,288.411652 145.093704,288.824371 145.041428,289.574738 
	C145.724899,290.358521 146.408386,291.142303 147.066544,291.984741 
M152.998795,376.999176 
	C152.998795,376.999176 153.007599,377.004272 153.326401,376.373749 
	C153.517090,375.392303 153.707779,374.410828 153.898453,373.429382 
	C153.435547,373.239166 152.972656,373.048950 152.509750,372.858734 
	C150.545074,376.306000 148.580383,379.753265 146.623642,383.186615 
	C151.179642,383.486725 154.724731,383.720245 158.497025,383.968719 
	C157.164429,381.645386 158.208511,377.178070 152.998795,376.999176 
M350.102539,376.672394 
	C350.828125,376.971436 351.553711,377.270508 352.279297,377.569580 
	C352.403870,377.188019 352.528442,376.806458 352.653015,376.424896 
	C351.766418,376.285522 350.879791,376.146179 349.978210,375.272430 
	C348.938171,373.940704 347.898163,372.608978 346.858154,371.277222 
	C345.774750,372.364044 344.657471,373.419556 343.616272,374.545441 
	C342.217194,376.058350 340.876892,377.625610 338.805237,379.967926 
	C341.376984,381.823486 343.763062,384.271057 346.658051,385.338196 
	C348.185272,385.901184 350.616791,384.094788 352.583160,383.229065 
	C352.746521,383.157166 352.474365,382.095947 352.404572,381.494385 
	C350.958923,381.917084 349.517303,382.354706 348.064301,382.750397 
	C347.759125,382.833496 347.411926,382.762482 346.804321,382.762482 
	C346.561554,381.964752 346.413361,381.065674 346.020905,380.290192 
	C345.502197,379.265259 344.792145,378.337158 344.164307,377.367462 
	C345.449951,376.913666 346.717865,376.395477 348.029022,376.034393 
	C348.645172,375.864746 349.344604,375.997528 350.102539,376.672394 
M278.925262,373.531647 
	C277.131805,373.436798 275.338318,373.341980 273.032593,373.220062 
	C273.032593,376.820557 273.032593,380.047119 273.032593,382.122162 
	C275.643280,382.291382 278.659149,382.486908 282.663818,382.746521 
	C281.737183,379.882477 280.736786,376.790466 278.925262,373.531647 
M320.619141,373.365631 
	C319.851318,377.122986 319.083496,380.880341 318.315643,384.637695 
	C318.788208,385.003479 319.260773,385.369263 319.733337,385.735046 
	C321.467041,380.958893 323.626862,378.881897 326.830719,383.672272 
	C326.830719,380.485138 326.830719,377.307983 326.830719,373.979645 
	C324.714081,373.731964 323.089905,373.541901 320.619141,373.365631 
M182.229675,373.765594 
	C180.778214,376.100159 179.326736,378.434753 177.364746,381.590454 
	C175.307098,378.581512 173.641876,376.146423 171.976669,373.711304 
	C171.700638,373.965057 171.424591,374.218811 171.148560,374.472565 
	C173.474030,377.162872 175.799500,379.853180 177.231644,381.509979 
	C178.757446,380.359802 180.078934,379.363617 181.719803,378.126678 
	C181.935394,380.871735 182.096634,382.924835 182.257889,384.977936 
	C182.898560,384.901672 183.539230,384.825378 184.179901,384.749115 
	C183.767319,381.037720 183.354736,377.326324 182.229675,373.765594 
M366.253601,383.827545 
	C366.871216,383.950745 367.488800,384.073944 368.106415,384.197144 
	C368.227814,382.595032 368.349213,380.992920 368.474945,379.333862 
	C369.755951,379.333862 370.748749,379.333862 372.731537,379.333862 
	C370.561401,376.887573 368.976013,375.100494 367.390656,373.313385 
	C366.999176,373.472900 366.607727,373.632385 366.216278,373.791901 
	C366.216278,376.850769 366.216278,379.909637 366.253601,383.827545 
M128.427338,384.833984 
	C129.019104,384.745178 129.610886,384.656372 129.629471,384.653564 
	C128.639328,382.462799 126.424721,379.680511 127.076920,378.545410 
	C128.271103,376.467041 131.158554,375.361633 132.744904,374.262726 
	C128.110092,373.522400 126.337578,373.900146 125.270439,376.757538 
	C124.097763,379.897522 124.721855,382.663452 128.427338,384.833984 
M218.947891,383.510590 
	C217.900787,382.517151 216.250900,381.682678 215.937866,380.495697 
	C215.367584,378.333160 215.590317,375.961517 215.482193,373.677124 
	C215.084518,373.705261 214.686859,373.733429 214.289185,373.761566 
	C214.289185,377.479889 214.289185,381.198212 214.289185,384.583740 
	C216.885254,384.583740 219.263199,384.583740 221.641129,384.583740 
	C221.622345,384.343384 221.603577,384.103027 221.584793,383.862671 
	C220.994537,383.747101 220.404282,383.631531 218.947891,383.510590 
M242.309738,413.017822 
	C241.375305,410.525360 240.440887,408.032898 239.277786,404.930450 
	C237.094299,408.276703 235.826080,410.220245 233.887665,413.190918 
	C236.409988,412.383118 237.960724,411.678955 239.577179,411.460083 
	C240.337158,411.357178 241.223557,412.187805 242.309738,413.017822 
M167.420761,320.361664 
	C166.234146,319.905334 165.047531,319.449005 163.860931,318.992676 
	C163.742615,319.527039 163.624298,320.061371 163.505981,320.595703 
	C164.631668,320.666382 165.757355,320.737061 167.420761,320.361664 
M145.520203,384.432037 
	C145.520203,384.432037 145.570969,384.520691 145.520203,384.432037 
z"/>
<path fill="#F8A8A3" opacity="1.000000" stroke="none" 
	d="
M343.816498,182.255829 
	C349.206238,198.020813 352.489227,214.193115 351.807190,230.889908 
	C351.464722,239.273911 349.928040,247.609131 348.581299,256.428192 
	C344.839355,257.264435 341.444550,257.614014 338.056244,258.017975 
	C327.857971,259.233765 317.662415,260.472839 307.465332,261.698578 
	C301.585236,262.405426 295.704102,263.104034 289.823456,263.806366 
	C290.430115,262.408569 291.284515,261.933289 292.018280,261.314850 
	C298.728821,255.659058 305.644867,250.218582 312.022125,244.207306 
	C315.398438,241.024780 318.096710,236.716248 316.614258,231.686523 
	C315.138947,226.681152 310.716675,225.088928 306.009674,224.869003 
	C295.789307,224.391510 285.556335,224.178452 275.327667,223.887466 
	C273.000763,223.821259 270.670349,223.877716 268.341553,223.877716 
	C268.244995,223.386490 268.148407,222.895279 268.051849,222.404053 
	C269.343994,221.532837 270.574677,220.548721 271.937378,219.807175 
	C295.146240,207.177444 318.367340,194.570084 341.619141,182.019669 
	C342.153442,181.731293 343.075378,182.161057 343.816498,182.255829 
z"/>
<path fill="#FEEFE9" opacity="1.000000" stroke="none" 
	d="
M343.873932,181.842834 
	C343.075378,182.161057 342.153442,181.731293 341.619141,182.019669 
	C318.367340,194.570084 295.146240,207.177444 271.937378,219.807175 
	C270.574677,220.548721 269.343994,221.532837 268.051849,222.404053 
	C268.148407,222.895279 268.244995,223.386490 268.341553,223.877716 
	C270.670349,223.877716 273.000763,223.821259 275.327667,223.887466 
	C285.556335,224.178452 295.789307,224.391510 306.009674,224.869003 
	C310.716675,225.088928 315.138947,226.681152 316.614258,231.686523 
	C318.096710,236.716248 315.398438,241.024780 312.022125,244.207306 
	C305.644867,250.218582 298.728821,255.659058 292.018280,261.314850 
	C291.284515,261.933289 290.430115,262.408569 289.823456,263.806366 
	C295.704102,263.104034 301.585236,262.405426 307.465332,261.698578 
	C317.662415,260.472839 327.857971,259.233765 338.056244,258.017975 
	C341.444550,257.614014 344.839355,257.264435 348.553955,256.843842 
	C348.736755,257.733032 348.596741,258.668396 347.829987,259.811066 
	C346.128021,260.671448 345.052795,261.324493 343.987061,261.987061 
	C343.996582,261.996643 344.018219,262.010895 343.954346,261.656433 
	C342.237061,261.149109 340.583649,260.996277 338.691895,260.870728 
	C338.453583,260.898010 337.974640,260.939301 337.533081,260.935730 
	C330.733704,261.651642 324.375854,262.371094 317.604034,263.084229 
	C312.430786,263.721863 307.627441,264.139893 302.921387,265.057068 
	C293.202118,266.951294 283.305420,268.386627 273.907776,271.358093 
	C263.684052,274.590790 254.157593,280.037476 243.925247,283.231262 
	C235.635635,285.818604 226.764008,286.585663 218.112762,287.914215 
	C217.018066,288.082306 215.693970,286.756622 214.476151,286.123016 
	C215.174622,284.869110 215.751007,283.520386 216.621094,282.399719 
	C217.082672,281.805206 218.015961,281.473236 218.800934,281.248932 
	C232.008408,277.474609 245.181671,273.568787 258.456238,270.045105 
	C268.164398,267.468079 278.632843,267.180725 286.938171,260.556641 
	C294.316132,254.672165 302.352875,249.321182 308.590790,242.379517 
	C315.241791,234.978149 312.743958,228.535934 303.960724,227.845428 
	C293.282837,227.005951 282.525909,227.224426 271.815247,226.725723 
	C267.099640,226.506165 265.563995,229.112564 264.389191,233.007019 
	C261.560242,242.384995 258.500275,251.695618 255.366623,260.977081 
	C254.840500,262.535431 253.478973,263.811707 252.503448,265.218323 
	C251.898987,264.863434 251.294510,264.508575 250.690048,264.153687 
	C254.219330,252.379822 257.748596,240.605972 261.315948,228.705139 
	C258.767822,228.119202 256.946930,227.700485 253.874603,226.994019 
	C256.103210,225.099808 257.234894,223.598511 258.733765,222.962051 
	C263.838348,220.794525 266.056366,216.820206 267.437714,211.669296 
	C269.025970,205.746841 271.327972,200.004318 273.552277,194.273804 
	C273.988464,193.150070 275.484375,192.437653 276.491516,191.535538 
	C276.759369,192.820007 277.534058,194.252930 277.208771,195.363678 
	C275.670929,200.614502 273.832336,205.777237 271.932983,211.285690 
	C271.238708,213.214142 270.712372,214.828247 270.186035,216.442352 
	C270.483673,216.681686 270.781342,216.921005 271.078979,217.160339 
	C273.769318,215.476227 276.459656,213.792114 279.510101,212.052917 
	C298.920532,201.685806 317.970856,191.373749 337.328613,180.902069 
	C340.807343,179.039749 341.699219,176.837128 339.420746,173.678772 
	C338.674408,172.644257 338.380737,171.283157 337.880096,170.071396 
	C340.890869,170.281494 342.647827,171.241791 342.304077,174.920883 
	C342.107788,177.021500 343.341522,179.255753 343.873932,181.842834 
M221.544220,283.697021 
	C221.374908,283.951721 221.180984,284.194702 221.050369,284.467896 
	C221.007950,284.556641 221.131226,284.839783 221.178497,284.839722 
	C223.488632,284.837006 225.948990,285.327393 228.083313,284.703949 
	C238.235382,281.738678 248.305527,278.490936 258.380127,275.266479 
	C259.151520,275.019592 259.731262,274.173920 260.400085,273.606567 
	C260.235596,273.207458 260.071075,272.808350 259.906555,272.409271 
	C247.066818,275.120605 234.190689,277.693268 221.544220,283.697021 
z"/>
<path fill="#EDB4B3" opacity="1.000000" stroke="none" 
	d="
M338.930206,260.843445 
	C340.583649,260.996277 342.237061,261.149109 343.707306,261.823792 
	C343.429382,262.959595 343.334686,263.573517 343.239990,264.187469 
	C343.444214,264.209076 343.648468,264.230682 343.852722,264.252289 
	C343.894318,263.494019 343.935944,262.735779 343.977539,261.977509 
	C345.052795,261.324493 346.128021,260.671448 347.538391,260.021606 
	C345.482025,272.801910 340.305847,284.540497 334.330231,295.958069 
	C332.811218,298.860413 330.847931,301.530243 328.740540,304.829102 
	C323.385651,311.237671 318.816376,317.584595 313.244904,322.876343 
	C308.042725,327.817383 301.776306,331.637878 295.978333,335.951599 
	C293.192902,337.217438 290.407501,338.483246 287.021667,339.911621 
	C285.937897,340.357758 285.454529,340.641327 284.971191,340.924866 
	C283.874115,341.273804 282.777069,341.622681 280.964417,342.063080 
	C266.362213,347.067810 252.221298,346.618011 237.985092,344.158447 
	C237.256775,344.068817 236.528458,343.979187 235.162201,343.619934 
	C225.677490,340.289001 216.830734,337.227661 207.983978,334.166321 
	C207.548782,334.102844 207.113586,334.039337 206.095139,333.704834 
	C195.666718,329.011078 185.821548,324.588348 175.976379,320.165649 
	C172.885818,317.855103 169.795242,315.544525 166.234131,312.803528 
	C163.172394,309.936432 160.581192,307.499756 157.989990,305.063049 
	C157.989990,305.063049 157.613464,304.938446 157.322662,304.594849 
	C155.715210,302.782196 154.398560,301.313141 153.081924,299.844116 
	C152.993393,299.542938 152.821991,299.300293 152.281708,298.687134 
	C150.355469,296.148712 148.715256,294.039307 147.075043,291.929901 
	C147.075043,291.929901 147.066544,291.984741 147.039673,291.637756 
	C146.373093,290.468628 145.733398,289.646484 145.093704,288.824371 
	C145.093704,288.824371 145.043533,288.411652 144.888931,287.877869 
	C143.183197,284.175323 141.632050,281.006592 140.080917,277.837830 
	C140.490891,277.584076 140.900864,277.330322 141.310822,277.076538 
	C142.381302,278.351990 143.557190,279.554077 144.504166,280.915466 
	C148.751663,287.021790 152.326569,293.730133 157.302490,299.159668 
	C162.808350,305.167450 169.574844,310.019897 175.908569,315.675568 
	C180.187134,318.744080 184.349487,321.512512 188.511826,324.280975 
	C188.937943,323.654327 189.364059,323.027679 189.790176,322.401062 
	C185.517426,318.988159 181.244690,315.575256 176.686020,311.981201 
	C166.379044,301.543793 156.818695,290.928986 150.491562,278.047699 
	C152.535355,279.375092 154.232178,280.722443 155.974091,282.384277 
	C156.479126,283.551941 156.939041,284.405151 157.398941,285.258331 
	C157.674713,285.056854 157.950485,284.855408 158.226242,284.653961 
	C157.512970,283.746185 156.799713,282.838409 156.079224,281.580505 
	C155.832520,280.015289 155.593033,278.800232 155.353546,277.585175 
	C155.682663,277.347778 156.011765,277.110382 156.340881,276.872986 
	C166.081360,296.071442 180.789032,309.829437 199.764053,319.596985 
	C218.493988,329.238373 249.111923,332.708740 260.128723,328.197998 
	C259.267242,328.106293 258.627502,328.038208 258.048157,327.639404 
	C258.758606,327.055237 259.433319,326.534180 260.054779,326.591400 
	C264.373993,326.989105 268.682190,327.506927 272.995544,328.201996 
	C272.997192,328.417786 272.996704,328.849060 272.615845,328.950867 
	C256.970276,332.499237 242.118225,338.262085 224.863388,336.783539 
	C274.911743,357.393768 326.509125,323.915222 339.419189,274.019684 
	C338.473145,274.429443 337.748047,274.743500 337.051178,274.675598 
	C337.889130,272.198608 338.295624,269.798065 339.599396,268.077423 
	C341.765259,265.218964 341.292542,263.056702 338.930206,260.843445 
M181.926941,311.587982 
	C181.804123,311.549744 181.681320,311.511536 181.558502,311.473297 
	C181.676056,311.674286 181.793625,311.875305 182.076843,312.400848 
	C182.205078,312.437439 182.333313,312.474030 182.461563,312.510590 
	C182.335968,312.307495 182.210373,312.104431 181.926941,311.587982 
M184.905655,313.575043 
	C184.774353,313.542175 184.643051,313.509338 184.511765,313.476471 
	C184.625534,313.694305 184.739304,313.912140 184.978653,314.806793 
	C187.643997,316.884338 190.309341,318.961884 193.381317,321.575348 
	C207.934387,332.580536 224.084946,336.365295 241.931244,332.485840 
	C229.046555,331.958710 216.687668,329.046875 204.801224,324.055969 
	C200.845291,322.394958 196.947189,320.596222 192.688782,318.296173 
	C190.160355,316.823792 187.631927,315.351410 184.905655,313.575043 
z"/>
<path fill="#FEF8F6" opacity="1.000000" stroke="none" 
	d="
M175.792328,315.375488 
	C169.574844,310.019897 162.808350,305.167450 157.302490,299.159668 
	C152.326569,293.730133 148.751663,287.021790 144.504166,280.915466 
	C143.557190,279.554077 142.381302,278.351990 141.310822,277.076538 
	C140.900864,277.330322 140.490891,277.584076 140.080917,277.837830 
	C141.632050,281.006592 143.183197,284.175323 144.830811,287.678284 
	C138.065475,286.449280 136.123260,282.676849 138.431030,274.247375 
	C139.457870,273.208679 140.743469,272.331482 140.608307,271.910767 
	C139.673935,269.002838 138.443481,266.190094 136.778748,262.020813 
	C136.249359,264.619110 136.004303,265.821899 135.759247,267.024689 
	C131.642944,265.299438 131.311523,262.302063 133.326965,258.078400 
	C134.098099,254.993668 135.055420,252.410645 134.777481,249.968201 
	C133.214859,236.236679 133.333527,222.597290 136.394394,209.060150 
	C137.154358,209.753098 137.597473,210.406586 138.038193,211.495575 
	C136.854706,224.057388 135.658722,236.184341 139.830917,248.113205 
	C140.551254,246.082092 140.685242,244.040146 140.745789,241.996017 
	C141.087891,230.446091 140.327774,218.727859 142.080399,207.397568 
	C143.525360,198.056412 147.938980,189.174469 151.287079,179.849106 
	C155.067245,174.068832 158.597397,168.528488 162.317947,162.882584 
	C162.744171,162.590652 162.906189,162.353760 163.206757,161.973053 
	C163.419098,161.879761 163.861404,161.739929 164.057663,162.045715 
	C164.922318,162.585892 165.590729,162.820282 166.093323,163.364624 
	C157.559570,175.992065 149.961929,188.837387 147.727127,203.740402 
	C145.988281,215.336151 145.878876,227.176239 145.062241,239.239014 
	C146.420502,240.439957 147.761810,241.309601 148.941956,242.490265 
	C145.158630,246.777328 145.944626,251.340073 147.071198,256.139801 
	C147.206589,256.592896 147.369247,256.795471 147.695374,257.314697 
	C147.884262,258.444794 147.976395,259.204559 148.121124,260.278259 
	C148.420471,261.386475 148.667236,262.180786 148.561188,262.983398 
	C147.502640,262.984711 146.796906,262.977722 145.998352,262.612274 
	C144.676346,258.999695 143.447174,255.745605 142.218002,252.491516 
	C141.777039,252.643036 141.336060,252.794556 140.895096,252.946060 
	C141.501205,261.001526 144.700928,268.240692 148.975372,275.482605 
	C149.375122,276.568512 149.759842,277.318115 150.144577,278.067688 
	C156.818695,290.928986 166.379044,301.543793 176.655258,312.316925 
	C176.537720,313.681061 176.165024,314.528259 175.792328,315.375488 
z"/>
<path fill="#ECB6B4" opacity="1.000000" stroke="none" 
	d="
M136.077530,209.020676 
	C133.333527,222.597290 133.214859,236.236679 134.777481,249.968201 
	C135.055420,252.410645 134.098099,254.993668 133.381256,257.691223 
	C127.950424,236.404236 129.965454,215.376602 136.761230,194.586807 
	C143.201324,174.885086 154.330872,158.128189 169.206818,143.970947 
	C184.240601,129.663467 202.310410,120.938034 222.722763,116.980927 
	C247.631805,112.152100 271.574829,115.487000 293.961578,126.910316 
	C309.912506,135.049606 323.887177,146.110504 332.537292,162.620224 
	C330.161621,161.300705 328.127472,159.633865 325.954865,157.655914 
	C320.571838,150.531052 315.235504,143.814453 307.096863,139.572296 
	C305.485718,138.137711 304.163727,136.850464 302.654907,135.843048 
	C281.199493,121.517502 257.665283,115.952789 232.021271,118.879700 
	C211.393860,121.234055 192.679855,127.988243 176.587585,142.007401 
	C154.822891,159.601929 141.844696,182.142426 136.077530,209.020676 
z"/>
<path fill="#FEE8E0" opacity="1.000000" stroke="none" 
	d="
M326.093323,157.967041 
	C328.127472,159.633865 330.161621,161.300705 332.550354,162.969635 
	C333.278290,163.662186 333.651672,164.352646 333.777649,165.615936 
	C333.355316,167.133438 333.180420,168.078125 332.681091,168.851257 
	C330.002533,167.785278 327.675903,166.246521 325.287933,166.144501 
	C321.523224,165.983658 317.655975,166.484772 313.939240,167.235794 
	C295.821838,170.896683 278.258820,176.268692 261.645355,184.536972 
	C257.545471,186.577423 253.228226,188.181198 248.937393,189.621796 
	C249.669891,188.307724 250.289886,187.020340 251.309708,186.457764 
	C267.629944,177.455002 284.917938,170.951248 303.127655,167.008560 
	C310.941406,165.316757 318.854675,164.084381 327.240875,162.548355 
	C325.893219,160.626419 324.968994,159.308350 324.385376,157.992096 
	C325.181732,157.984955 325.637512,157.975998 326.093323,157.967041 
z"/>
<path fill="#FEF8F6" opacity="1.000000" stroke="none" 
	d="
M296.193298,336.227600 
	C301.776306,331.637878 308.042725,327.817383 313.244904,322.876343 
	C318.816376,317.584595 323.385651,311.237671 328.663391,305.161896 
	C328.891632,306.559326 329.499054,308.691162 328.700195,309.644348 
	C323.593597,315.737701 318.443878,321.844849 312.760834,327.385895 
	C309.508179,330.557281 305.301453,332.799194 301.360168,335.188904 
	C299.958984,336.038483 298.072968,336.088531 296.193298,336.227600 
z"/>
<path fill="#FEF8F6" opacity="1.000000" stroke="none" 
	d="
M238.046066,344.517761 
	C252.221298,346.618011 266.362213,347.067810 280.630432,342.158020 
	C279.833679,343.185608 278.820648,344.637054 277.451080,345.166992 
	C265.220734,349.899017 252.722015,349.977600 240.130142,346.819427 
	C239.342911,346.621979 238.776291,345.544891 238.046066,344.517761 
z"/>
<path fill="#FEF8F6" opacity="1.000000" stroke="none" 
	d="
M175.990814,320.539001 
	C185.821548,324.588348 195.666718,329.011078 205.765289,333.694092 
	C198.980301,335.903931 192.740448,333.877655 186.759216,330.228912 
	C184.254242,328.700745 181.328857,327.774261 179.052963,325.989655 
	C177.602081,324.851959 176.992203,322.641693 175.990814,320.539001 
z"/>
<path fill="#454545" opacity="1.000000" stroke="none" 
	d="
M279.330841,373.615051 
	C280.736786,376.790466 281.737183,379.882477 282.663818,382.746521 
	C278.659149,382.486908 275.643280,382.291382 273.032593,382.122162 
	C273.032593,380.047119 273.032593,376.820557 273.032593,373.220062 
	C275.338318,373.341980 277.131805,373.436798 279.330841,373.615051 
z"/>
<path fill="#2A2A2A" opacity="1.000000" stroke="none" 
	d="
M321.042419,373.358765 
	C323.089905,373.541901 324.714081,373.731964 326.830719,373.979645 
	C326.830719,377.307983 326.830719,380.485138 326.830719,383.672272 
	C323.626862,378.881897 321.467041,380.958893 319.733337,385.735046 
	C319.260773,385.369263 318.788208,385.003479 318.315643,384.637695 
	C319.083496,380.880341 319.851318,377.122986 321.042419,373.358765 
z"/>
<path fill="#ECECEC" opacity="1.000000" stroke="none" 
	d="
M350.006287,375.993225 
	C349.344604,375.997528 348.645172,375.864746 348.029022,376.034393 
	C346.717865,376.395477 345.449951,376.913666 344.164307,377.367462 
	C344.792145,378.337158 345.502197,379.265259 346.020905,380.290192 
	C346.413361,381.065674 346.561554,381.964752 346.804321,382.762482 
	C347.411926,382.762482 347.759125,382.833496 348.064301,382.750397 
	C349.517303,382.354706 350.958923,381.917084 352.404572,381.494385 
	C352.474365,382.095947 352.746521,383.157166 352.583160,383.229065 
	C350.616791,384.094788 348.185272,385.901184 346.658051,385.338196 
	C343.763062,384.271057 341.376984,381.823486 338.805237,379.967926 
	C340.876892,377.625610 342.217194,376.058350 343.616272,374.545441 
	C344.657471,373.419556 345.774750,372.364044 346.858154,371.277222 
	C347.898163,372.608978 348.938171,373.940704 349.989105,375.636230 
	C350.000000,376.000000 350.006287,375.993225 350.006287,375.993225 
z"/>
<path fill="#FEF8F6" opacity="1.000000" stroke="none" 
	d="
M208.041687,334.513397 
	C216.830734,337.227661 225.677490,340.289001 234.795944,343.595581 
	C232.894989,344.223114 230.433441,345.451080 228.604797,344.826355 
	C223.462036,343.069458 218.542923,340.627747 213.613144,338.292389 
	C211.669495,337.371613 209.931198,336.017365 208.041687,334.513397 
z"/>
<path fill="#3C3C3C" opacity="1.000000" stroke="none" 
	d="
M182.585907,373.690247 
	C183.354736,377.326324 183.767319,381.037720 184.179901,384.749115 
	C183.539230,384.825378 182.898560,384.901672 182.257889,384.977936 
	C182.096634,382.924835 181.935394,380.871735 181.719803,378.126678 
	C180.078934,379.363617 178.757446,380.359802 177.231644,381.509979 
	C175.799500,379.853180 173.474030,377.162872 171.148560,374.472565 
	C171.424591,374.218811 171.700638,373.965057 171.976669,373.711304 
	C173.641876,376.146423 175.307098,378.581512 177.364746,381.590454 
	C179.326736,378.434753 180.778214,376.100159 182.585907,373.690247 
z"/>
<path fill="#DEDEDE" opacity="1.000000" stroke="none" 
	d="
M152.988739,376.991241 
	C158.208511,377.178070 157.164429,381.645386 158.497025,383.968719 
	C154.724731,383.720245 151.179642,383.486725 146.623642,383.186615 
	C148.580383,379.753265 150.545074,376.306000 152.509750,372.858734 
	C152.972656,373.048950 153.435547,373.239166 153.898453,373.429382 
	C153.707779,374.410828 153.517090,375.392303 152.926163,376.870850 
	C152.525925,378.116730 152.525925,378.865540 152.525925,379.614319 
	C152.878799,379.583740 153.231659,379.553162 153.584534,379.522583 
	C153.385925,378.678802 153.187332,377.835022 152.988739,376.991241 
z"/>
<path fill="#EDB4B3" opacity="1.000000" stroke="none" 
	d="
M333.005524,169.022812 
	C333.180420,168.078125 333.355316,167.133438 333.798096,165.929596 
	C335.170410,166.989105 336.274841,168.307755 337.629700,169.848907 
	C338.380737,171.283157 338.674408,172.644257 339.420746,173.678772 
	C341.699219,176.837128 340.807343,179.039749 337.320312,180.504776 
	C336.533875,179.189590 336.276337,177.931610 335.548462,177.071808 
	C333.989838,175.230728 332.687500,172.474533 333.270569,170.846161 
	C333.329681,170.129562 333.151154,169.556976 332.988708,168.987213 
	C333.004761,168.990067 333.005524,169.022812 333.005524,169.022812 
M336.411377,174.484100 
	C336.411377,174.484100 336.522888,174.417404 336.411377,174.484100 
z"/>
<path fill="#3C3C3C" opacity="1.000000" stroke="none" 
	d="
M366.234924,383.398010 
	C366.216278,379.909637 366.216278,376.850769 366.216278,373.791901 
	C366.607727,373.632385 366.999176,373.472900 367.390656,373.313385 
	C368.976013,375.100494 370.561401,376.887573 372.731537,379.333862 
	C370.748749,379.333862 369.755951,379.333862 368.474945,379.333862 
	C368.349213,380.992920 368.227814,382.595032 368.106415,384.197144 
	C367.488800,384.073944 366.871216,383.950745 366.234924,383.398010 
z"/>
<path fill="#313131" opacity="1.000000" stroke="none" 
	d="
M128.141541,384.653595 
	C124.721855,382.663452 124.097763,379.897522 125.270439,376.757538 
	C126.337578,373.900146 128.110092,373.522400 132.744904,374.262726 
	C131.158554,375.361633 128.271103,376.467041 127.076920,378.545410 
	C126.424721,379.680511 128.639328,382.462799 129.629471,384.653564 
	C129.610886,384.656372 129.019104,384.745178 128.141541,384.653595 
z"/>
<path fill="#2A2A2A" opacity="1.000000" stroke="none" 
	d="
M219.380951,383.513275 
	C220.404282,383.631531 220.994537,383.747101 221.584793,383.862671 
	C221.603577,384.103027 221.622345,384.343384 221.641129,384.583740 
	C219.263199,384.583740 216.885254,384.583740 214.289185,384.583740 
	C214.289185,381.198212 214.289185,377.479889 214.289185,373.761566 
	C214.686859,373.733429 215.084518,373.705261 215.482193,373.677124 
	C215.590317,375.961517 215.367584,378.333160 215.937866,380.495697 
	C216.250900,381.682678 217.900787,382.517151 219.380951,383.513275 
z"/>
<path fill="#EAB8B6" opacity="1.000000" stroke="none" 
	d="
M242.181198,412.806610 
	C241.223557,412.187805 240.337158,411.357178 239.577179,411.460083 
	C237.960724,411.678955 236.409988,412.383118 233.887665,413.190918 
	C235.826080,410.220245 237.094299,408.276703 239.277786,404.930450 
	C240.440887,408.032898 241.375305,410.525360 242.181198,412.806610 
z"/>
<path fill="#EAB8B6" opacity="1.000000" stroke="none" 
	d="
M135.824722,267.349731 
	C136.004303,265.821899 136.249359,264.619110 136.778748,262.020813 
	C138.443481,266.190094 139.673935,269.002838 140.608307,271.910767 
	C140.743469,272.331482 139.457870,273.208679 138.466858,273.830475 
	C137.997940,273.515930 137.836121,273.284515 137.372223,272.648071 
	C136.740356,271.135223 136.354813,270.066406 135.969269,268.997589 
	C135.942917,268.556641 135.916550,268.115723 135.824722,267.349731 
z"/>
<path fill="#FEF8F6" opacity="1.000000" stroke="none" 
	d="
M157.997223,305.427124 
	C160.581192,307.499756 163.172394,309.936432 165.930191,312.661804 
	C160.851440,313.444031 159.578552,309.447388 157.997223,305.427124 
z"/>
<path fill="#FEF8F6" opacity="1.000000" stroke="none" 
	d="
M147.049408,292.347290 
	C148.715256,294.039307 150.355469,296.148712 152.077637,298.589905 
	C147.166565,299.606232 146.936615,296.317688 147.049408,292.347290 
z"/>
<path fill="#FEF8F6" opacity="1.000000" stroke="none" 
	d="
M153.054993,300.253998 
	C154.398560,301.313141 155.715210,302.782196 157.125900,304.570038 
	C153.942474,305.346008 152.775208,303.709442 153.054993,300.253998 
z"/>
<path fill="#FEF8F6" opacity="1.000000" stroke="none" 
	d="
M135.629211,269.052917 
	C136.354813,270.066406 136.740356,271.135223 137.186584,272.540955 
	C134.613495,272.650360 132.931931,271.928253 135.629211,269.052917 
z"/>
<path fill="#FEF8F6" opacity="1.000000" stroke="none" 
	d="
M167.151901,320.584717 
	C165.757355,320.737061 164.631668,320.666382 163.505981,320.595703 
	C163.624298,320.061371 163.742615,319.527039 163.860931,318.992676 
	C165.047531,319.449005 166.234146,319.905334 167.151901,320.584717 
z"/>
<path fill="#ECECEC" opacity="1.000000" stroke="none" 
	d="
M349.996582,376.003418 
	C350.879791,376.146179 351.766418,376.285522 352.653015,376.424896 
	C352.528442,376.806458 352.403870,377.188019 352.279297,377.569580 
	C351.553711,377.270508 350.828125,376.971436 350.054413,376.332825 
	C350.006287,375.993225 350.000000,376.000000 349.996582,376.003418 
z"/>
<path fill="#FEF8F6" opacity="1.000000" stroke="none" 
	d="
M145.067566,289.199554 
	C145.733398,289.646484 146.373093,290.468628 147.052338,291.608398 
	C146.408386,291.142303 145.724899,290.358521 145.067566,289.199554 
z"/>
<path fill="#FEF8F6" opacity="1.000000" stroke="none" 
	d="
M285.132202,341.163818 
	C285.454529,340.641327 285.937897,340.357758 286.715363,340.080444 
	C286.437408,340.525421 285.865326,340.964111 285.132202,341.163818 
z"/>
<path fill="#DEDEDE" opacity="1.000000" stroke="none" 
	d="
M145.545593,384.476379 
	C145.570969,384.520691 145.520203,384.432037 145.545593,384.476379 
z"/>
<path fill="#F9A8A2" opacity="1.000000" stroke="none" 
	d="
M333.032990,170.990189 
	C332.687500,172.474533 333.989838,175.230728 335.548462,177.071808 
	C336.276337,177.931610 336.533875,179.189590 337.012878,180.664398 
	C317.970856,191.373749 298.920532,201.685806 279.099365,212.019867 
	C276.252655,211.685043 274.176788,211.328201 272.100922,210.971359 
	C273.832336,205.777237 275.670929,200.614502 277.208771,195.363678 
	C277.534058,194.252930 276.759369,192.820007 276.491516,191.535538 
	C275.484375,192.437653 273.988464,193.150070 273.552277,194.273804 
	C271.327972,200.004318 269.025970,205.746841 267.437714,211.669296 
	C266.056366,216.820206 263.838348,220.794525 258.733765,222.962051 
	C257.234894,223.598511 256.103210,225.099808 253.874603,226.994019 
	C256.946930,227.700485 258.767822,228.119202 261.315948,228.705139 
	C257.748596,240.605972 254.219330,252.379822 250.690048,264.153687 
	C251.294510,264.508575 251.898987,264.863434 252.503448,265.218323 
	C253.478973,263.811707 254.840500,262.535431 255.366623,260.977081 
	C258.500275,251.695618 261.560242,242.384995 264.389191,233.007019 
	C265.563995,229.112564 267.099640,226.506165 271.815247,226.725723 
	C282.525909,227.224426 293.282837,227.005951 303.960724,227.845428 
	C312.743958,228.535934 315.241791,234.978149 308.590790,242.379517 
	C302.352875,249.321182 294.316132,254.672165 286.938171,260.556641 
	C278.632843,267.180725 268.164398,267.468079 258.456238,270.045105 
	C245.181671,273.568787 232.008408,277.474609 218.800934,281.248932 
	C218.015961,281.473236 217.082672,281.805206 216.621094,282.399719 
	C215.751007,283.520386 215.174622,284.869110 214.476151,286.123016 
	C215.693970,286.756622 217.018066,288.082306 218.112762,287.914215 
	C226.764008,286.585663 235.635635,285.818604 243.925247,283.231262 
	C254.157593,280.037476 263.684052,274.590790 273.907776,271.358093 
	C283.305420,268.386627 293.202118,266.951294 302.921387,265.057068 
	C307.627441,264.139893 312.430786,263.721863 317.891724,263.350220 
	C323.283478,263.286346 327.986298,263.066803 332.657135,262.555115 
	C334.466919,262.356812 336.204285,261.497467 337.974640,260.939301 
	C337.974640,260.939301 338.453583,260.898010 338.691895,260.870728 
	C341.292542,263.056702 341.765259,265.218964 339.599396,268.077423 
	C338.295624,269.798065 337.889130,272.198608 337.017212,274.962585 
	C336.639709,276.087463 336.324402,276.543365 335.666504,277.046570 
	C334.595795,278.436066 333.867645,279.778290 333.101318,281.125427 
	C333.063141,281.130280 333.128815,281.097351 332.798340,281.208496 
	C330.974823,284.204681 329.481750,287.089722 327.995911,289.987427 
	C328.003143,290.000031 327.974670,289.995209 327.746277,290.118469 
	C327.367615,290.546417 327.217346,290.851105 326.986572,291.359558 
	C326.745148,291.821045 326.522827,292.004272 325.974548,292.172180 
	C325.508575,292.516296 325.307159,292.801270 325.055084,293.065918 
	C325.004456,293.045624 325.090820,293.112640 324.852478,293.188324 
	C324.310120,293.457397 324.141022,293.733459 324.121826,294.105408 
	C324.136810,294.118652 324.144196,294.157990 323.771423,294.157593 
	C322.980743,295.184174 322.562866,296.211121 322.023193,297.474060 
	C321.587952,298.137482 321.274567,298.564941 320.589325,298.997955 
	C316.593781,299.334625 314.997589,301.448944 314.812775,305.019775 
	C314.642181,305.084869 314.280151,305.133057 313.990662,305.202026 
	C313.507751,305.600830 313.314331,305.930695 313.037842,306.564148 
	C312.001953,307.598907 311.049164,308.330078 309.783905,309.062531 
	C309.018951,309.420471 308.566467,309.777130 308.120667,310.148621 
	C308.127319,310.163422 308.139954,310.193359 307.805847,310.110535 
	C303.938873,308.878876 305.276611,311.591400 305.031647,313.052917 
	C305.004242,313.034912 305.057495,313.057983 304.669861,313.042145 
	C300.069519,314.739288 295.869110,316.483337 291.640991,318.157501 
	C286.136658,320.337006 280.562927,322.351776 275.136353,324.707642 
	C274.136230,325.141815 273.693756,326.860443 272.993896,327.986206 
	C268.682190,327.506927 264.373993,326.989105 260.054779,326.591400 
	C259.433319,326.534180 258.758606,327.055237 257.614441,327.666138 
	C253.758881,328.259949 250.397415,328.496277 246.929718,328.399170 
	C244.876831,328.070068 242.930145,328.074310 240.538025,328.079163 
	C203.256378,326.268188 170.708969,300.871277 159.543854,276.908386 
	C176.518539,274.245514 192.786621,269.665131 207.718048,261.058777 
	C205.696640,260.619232 203.908569,260.963959 202.186371,261.514648 
	C190.840271,265.142700 179.598831,269.144531 168.123367,272.296814 
	C164.033096,273.420380 159.235947,276.114502 154.975555,271.571960 
	C153.861115,268.005005 152.992020,264.696686 151.596924,261.627380 
	C151.186707,260.724915 149.286087,260.499878 148.068542,259.964355 
	C147.976395,259.204559 147.884262,258.444794 147.697052,257.109863 
	C147.479630,256.272278 147.289551,256.075012 147.031754,255.942886 
	C145.944626,251.340073 145.158630,246.777328 149.225800,242.308258 
	C160.945694,231.516968 171.733795,220.610260 183.632156,211.091339 
	C195.557556,201.550827 208.517349,193.237778 223.737534,189.525772 
	C230.122269,187.968597 233.349869,190.658539 232.990082,197.211655 
	C232.882294,199.175262 232.397385,201.142334 231.886475,203.054718 
	C230.764297,207.254990 229.515182,211.421341 228.280701,215.731415 
	C233.341904,216.525543 233.845215,212.746658 234.579453,210.233337 
	C236.687347,203.017914 238.768951,195.974152 246.497742,192.169235 
	C247.550552,191.407043 248.267975,190.709061 248.992279,190.005386 
	C248.999176,189.999710 249.010910,189.985733 249.010910,189.985718 
	C253.228226,188.181198 257.545471,186.577423 261.645355,184.536972 
	C278.258820,176.268692 295.821838,170.896683 313.939240,167.235794 
	C317.655975,166.484772 321.523224,165.983658 325.287933,166.144501 
	C327.675903,166.246521 330.002533,167.785278 332.681091,168.851257 
	C333.005524,169.022812 333.004761,168.990067 332.979279,169.322174 
	C332.980194,170.099579 333.006592,170.544876 333.032990,170.990189 
z"/>
<path fill="#F1AFAC" opacity="1.000000" stroke="none" 
	d="
M221.826172,283.492920 
	C234.190689,277.693268 247.066818,275.120605 259.906555,272.409271 
	C260.071075,272.808350 260.235596,273.207458 260.400085,273.606567 
	C259.731262,274.173920 259.151520,275.019592 258.380127,275.266479 
	C248.305527,278.490936 238.235382,281.738678 228.083313,284.703949 
	C225.948990,285.327393 223.488632,284.837006 221.178497,284.839722 
	C221.131226,284.839783 221.007950,284.556641 221.050369,284.467896 
	C221.180984,284.194702 221.374908,283.951721 221.826172,283.492920 
z"/>
<path fill="#EDB4B3" opacity="1.000000" stroke="none" 
	d="
M271.932983,211.285690 
	C274.176788,211.328201 276.252655,211.685043 278.739258,212.074951 
	C276.459656,213.792114 273.769318,215.476227 271.078979,217.160339 
	C270.781342,216.921005 270.483673,216.681686 270.186035,216.442352 
	C270.712372,214.828247 271.238708,213.214142 271.932983,211.285690 
z"/>
<path fill="#EDB4B3" opacity="1.000000" stroke="none" 
	d="
M337.533081,260.935730 
	C336.204285,261.497467 334.466919,262.356812 332.657135,262.555115 
	C327.986298,263.066803 323.283478,263.286346 318.305725,263.356567 
	C324.375854,262.371094 330.733704,261.651642 337.533081,260.935730 
z"/>
<path fill="#FDFAF8" opacity="1.000000" stroke="none" 
	d="
M336.009125,276.999298 
	C336.324402,276.543365 336.639709,276.087463 336.988953,275.344543 
	C337.748047,274.743500 338.473145,274.429443 339.419189,274.019684 
	C326.509125,323.915222 274.911743,357.393768 224.863388,336.783539 
	C242.118225,338.262085 256.970276,332.499237 272.988983,328.939331 
	C275.479706,328.259521 277.339813,327.927185 278.932678,327.087769 
	C287.677124,322.479767 296.356049,317.747559 305.057495,313.057983 
	C305.057495,313.057983 305.004242,313.034912 305.357727,313.003845 
	C306.520813,312.046326 307.330383,311.119843 308.139954,310.193359 
	C308.139954,310.193359 308.127319,310.163422 308.420471,310.137146 
	C309.174561,309.760986 309.635468,309.411102 310.096375,309.061249 
	C311.049164,308.330078 312.001953,307.598907 313.274506,306.424255 
	C313.822876,305.698181 314.051514,305.415619 314.280151,305.133057 
	C314.280151,305.133057 314.642181,305.084869 315.117615,304.898743 
	C317.382385,302.805878 319.171783,300.899139 320.961151,298.992371 
	C321.274567,298.564941 321.587952,298.137482 322.332520,297.346191 
	C323.223877,296.040894 323.684021,295.099426 324.144196,294.157990 
	C324.144196,294.157990 324.136810,294.118652 324.360840,294.031158 
	C324.753510,293.666656 324.922150,293.389648 325.090820,293.112640 
	C325.090820,293.112640 325.004456,293.045624 325.302063,292.985016 
	C325.812836,292.653961 326.025970,292.383484 326.239136,292.113037 
	C326.522827,292.004272 326.745148,291.821045 327.199310,291.218262 
	C327.653229,290.580505 327.813934,290.287872 327.974670,289.995209 
	C327.974670,289.995209 328.003143,290.000031 328.301880,289.842255 
	C330.110016,286.822113 331.619415,283.959747 333.128815,281.097351 
	C333.128815,281.097351 333.063141,281.130280 333.422302,281.048157 
	C334.524017,279.643799 335.266571,278.321533 336.009125,276.999298 
z"/>
<path fill="#FEEAE4" opacity="1.000000" stroke="none" 
	d="
M155.020065,271.921875 
	C159.235947,276.114502 164.033096,273.420380 168.123367,272.296814 
	C179.598831,269.144531 190.840271,265.142700 202.186371,261.514648 
	C203.908569,260.963959 205.696640,260.619232 207.718048,261.058777 
	C192.786621,269.665131 176.518539,274.245514 159.543854,276.908386 
	C170.708969,300.871277 203.256378,326.268188 240.825378,328.330383 
	C243.384094,328.631531 245.210007,328.682037 247.035934,328.732574 
	C250.397415,328.496277 253.758881,328.259949 257.554077,327.996887 
	C258.627502,328.038208 259.267242,328.106293 260.128723,328.197998 
	C249.111923,332.708740 218.493988,329.238373 199.764053,319.596985 
	C180.789032,309.829437 166.081360,296.071442 156.340881,276.872986 
	C156.011765,277.110382 155.682663,277.347778 155.353546,277.585175 
	C155.593033,278.800232 155.832520,280.015289 156.038895,281.614197 
	C156.005798,281.998047 155.928986,282.069824 155.928986,282.069824 
	C154.232178,280.722443 152.535355,279.375092 150.491562,278.047699 
	C149.759842,277.318115 149.375122,276.568512 149.310776,275.412476 
	C149.645660,273.803650 149.986404,272.486572 149.611725,271.421051 
	C148.601120,268.546997 147.285675,265.780151 146.091187,262.970764 
	C146.796906,262.977722 147.502640,262.984711 148.640991,263.354797 
	C150.501236,267.458527 151.928864,271.199127 153.356491,274.939697 
	C153.704941,274.792175 154.053375,274.644653 154.401825,274.497101 
	C154.607910,273.638702 154.813980,272.780273 155.020065,271.921875 
z"/>
<path fill="#FEF2ED" opacity="1.000000" stroke="none" 
	d="
M193.022659,318.860443 
	C196.947189,320.596222 200.845291,322.394958 204.801224,324.055969 
	C216.687668,329.046875 229.046555,331.958710 241.931244,332.485840 
	C224.084946,336.365295 207.934387,332.580536 193.186554,320.944580 
	C193.002090,319.829376 193.012375,319.344910 193.022659,318.860443 
z"/>
<path fill="#ECB6B4" opacity="1.000000" stroke="none" 
	d="
M304.669861,313.042145 
	C296.356049,317.747559 287.677124,322.479767 278.932678,327.087769 
	C277.339813,327.927185 275.479706,328.259521 273.369843,328.837524 
	C272.996704,328.849060 272.997192,328.417786 272.995544,328.201996 
	C273.693756,326.860443 274.136230,325.141815 275.136353,324.707642 
	C280.562927,322.351776 286.136658,320.337006 291.640991,318.157501 
	C295.869110,316.483337 300.069519,314.739288 304.669861,313.042145 
z"/>
<path fill="#FEF2ED" opacity="1.000000" stroke="none" 
	d="
M175.908569,315.675568 
	C176.165024,314.528259 176.537720,313.681061 176.941177,312.498108 
	C181.244690,315.575256 185.517426,318.988159 189.790176,322.401062 
	C189.364059,323.027679 188.937943,323.654327 188.511826,324.280975 
	C184.349487,321.512512 180.187134,318.744080 175.908569,315.675568 
z"/>
<path fill="#FEE8E0" opacity="1.000000" stroke="none" 
	d="
M192.855713,318.578308 
	C193.012375,319.344910 193.002090,319.829376 192.983246,320.676636 
	C190.309341,318.961884 187.643997,316.884338 184.980591,314.407776 
	C184.982529,314.008759 185.103500,313.879028 185.103500,313.879028 
	C187.631927,315.351410 190.160355,316.823792 192.855713,318.578308 
z"/>
<path fill="#FEEAE4" opacity="1.000000" stroke="none" 
	d="
M156.046112,281.964355 
	C156.799713,282.838409 157.512970,283.746185 158.226242,284.653961 
	C157.950485,284.855408 157.674713,285.056854 157.398941,285.258331 
	C156.939041,284.405151 156.479126,283.551941 155.974091,282.384277 
	C155.928986,282.069824 156.005798,281.998047 156.046112,281.964355 
z"/>
<path fill="#FEEFE9" opacity="1.000000" stroke="none" 
	d="
M343.987061,261.987061 
	C343.935944,262.735779 343.894318,263.494019 343.852722,264.252289 
	C343.648468,264.230682 343.444214,264.209076 343.239990,264.187469 
	C343.334686,263.573517 343.429382,262.959595 343.771179,262.178284 
	C344.018219,262.010895 343.996582,261.996643 343.987061,261.987061 
z"/>
<path fill="#FEE8E0" opacity="1.000000" stroke="none" 
	d="
M184.917801,314.069366 
	C184.739304,313.912140 184.625534,313.694305 184.511765,313.476501 
	C184.643051,313.509338 184.774353,313.542175 185.004578,313.727051 
	C185.103500,313.879028 184.982529,314.008759 184.917801,314.069366 
z"/>
<path fill="#FEE8E0" opacity="1.000000" stroke="none" 
	d="
M182.084793,311.901337 
	C182.210373,312.104431 182.335968,312.307495 182.461563,312.510620 
	C182.333313,312.474030 182.205078,312.437439 182.039169,312.196594 
	C182.001495,311.992310 182.084793,311.901337 182.084793,311.901337 
z"/>
<path fill="#FEE8E0" opacity="1.000000" stroke="none" 
	d="
M181.956345,312.034302 
	C181.793625,311.875305 181.676056,311.674286 181.558502,311.473297 
	C181.681320,311.511536 181.804123,311.549744 182.005859,311.744659 
	C182.084793,311.901337 182.001495,311.992310 181.956345,312.034302 
z"/>
<path fill="#F9A8A2" opacity="1.000000" stroke="none" 
	d="
M324.044800,157.990280 
	C324.968994,159.308350 325.893219,160.626419 327.240875,162.548355 
	C318.854675,164.084381 310.941406,165.316757 303.127655,167.008560 
	C284.917938,170.951248 267.629944,177.455002 251.309708,186.457764 
	C250.289886,187.020340 249.669891,188.307724 248.937393,189.621811 
	C249.010910,189.985733 248.999176,189.999710 248.631134,189.904205 
	C247.140457,190.177734 246.017838,190.546738 244.562469,190.963959 
	C243.797821,191.131546 243.365921,191.250946 242.752853,191.378296 
	C242.333755,191.510941 242.209808,191.707672 241.960968,192.218689 
	C240.552582,192.999847 239.383057,193.538773 238.148056,194.107864 
	C236.799011,187.887238 231.581894,184.427979 224.893295,186.462952 
	C216.233337,189.097717 207.502106,192.067078 199.526367,196.268387 
	C180.542328,206.268433 164.300964,219.969208 149.763046,235.722290 
	C148.510544,237.079498 146.632660,237.859573 145.045288,238.907745 
	C145.878876,227.176239 145.988281,215.336151 147.727127,203.740402 
	C149.961929,188.837387 157.559570,175.992065 166.358948,163.195404 
	C175.553802,154.848862 184.317215,146.981445 193.423889,139.045837 
	C196.184875,137.322906 198.602570,135.668198 201.010788,134.005371 
	C201.001312,133.997253 201.001770,134.021744 201.342377,134.040619 
	C202.465027,133.703995 203.247070,133.348495 204.012024,132.992081 
	C203.994949,132.991180 203.982742,133.023148 204.301529,133.012970 
	C205.043213,132.976486 205.466110,132.950180 206.241028,132.898758 
	C207.339142,131.534683 208.085251,130.195724 208.856171,128.871185 
	C208.880981,128.885605 208.927231,128.912811 209.155853,128.847687 
	C209.673019,128.622040 209.879105,128.388672 210.389923,127.997375 
	C213.511307,127.261482 216.220184,126.465462 218.983780,125.982910 
	C240.893906,122.157181 262.584167,122.293541 283.540833,130.709900 
	C290.872620,133.654388 297.811005,137.578491 305.108887,141.341171 
	C311.540771,147.081497 317.792786,152.535889 324.044800,157.990280 
z"/>
<path fill="#FEF0EB" opacity="1.000000" stroke="none" 
	d="
M242.934006,191.370331 
	C243.365921,191.250946 243.797821,191.131546 244.832306,191.121216 
	C245.677368,191.564651 245.919846,191.899048 246.162338,192.233429 
	C238.768951,195.974152 236.687347,203.017914 234.579453,210.233337 
	C233.845215,212.746658 233.341904,216.525543 228.280701,215.731415 
	C229.515182,211.421341 230.764297,207.254990 231.886475,203.054718 
	C232.397385,201.142334 232.882294,199.175262 232.990082,197.211655 
	C233.349869,190.658539 230.122269,187.968597 223.737534,189.525772 
	C208.517349,193.237778 195.557556,201.550827 183.632156,211.091339 
	C171.733795,220.610260 160.945694,231.516968 149.386978,241.997238 
	C147.761810,241.309601 146.420502,240.439957 145.062241,239.239029 
	C146.632660,237.859573 148.510544,237.079498 149.763046,235.722290 
	C164.300964,219.969208 180.542328,206.268433 199.526367,196.268387 
	C207.502106,192.067078 216.233337,189.097717 224.893295,186.462952 
	C231.581894,184.427979 236.799011,187.887238 238.148056,194.107864 
	C239.383057,193.538773 240.552582,192.999847 242.108170,192.151230 
	C242.682785,191.723618 242.829376,191.566559 242.934006,191.370331 
z"/>
<path fill="#EAB8B6" opacity="1.000000" stroke="none" 
	d="
M208.831375,128.856781 
	C208.085251,130.195724 207.339142,131.534683 206.108215,132.681580 
	C205.076523,132.667419 204.529633,132.845291 203.982742,133.023163 
	C203.982742,133.023148 203.994949,132.991180 203.668152,132.994812 
	C202.561493,133.339539 201.781631,133.680634 201.001770,134.021744 
	C201.001770,134.021744 201.001312,133.997253 200.639496,133.997070 
	C197.849274,135.267227 195.420837,136.537552 192.640472,137.890259 
	C189.850845,139.334274 187.076065,140.315994 185.036377,142.126068 
	C177.841919,148.510605 170.899460,155.179123 163.861404,161.739929 
	C163.861404,161.739929 163.419098,161.879761 163.000214,162.060379 
	C162.316925,162.421295 162.165665,162.670334 162.127533,162.988129 
	C158.597397,168.528488 155.067245,174.068832 151.272995,179.436005 
	C150.966751,178.441147 150.924606,177.619446 150.917297,176.447723 
	C152.485748,173.387497 153.618774,170.327652 155.624649,168.029724 
	C162.984329,159.598434 170.634033,151.420334 178.505020,143.061554 
	C180.374741,141.993912 181.821533,140.806519 183.468811,140.063828 
	C191.894562,136.265060 200.372009,132.580978 208.831375,128.856781 
M206.593491,130.514511 
	C206.593491,130.514511 206.478531,130.582047 206.593491,130.514511 
z"/>
<path fill="#ECB7B5" opacity="1.000000" stroke="none" 
	d="
M150.882477,176.797760 
	C150.924606,177.619446 150.966751,178.441147 151.022980,179.675934 
	C147.938980,189.174469 143.525360,198.056412 142.080399,207.397568 
	C140.327774,218.727859 141.087891,230.446091 140.745789,241.996017 
	C140.685242,244.040146 140.551254,246.082092 139.830917,248.113205 
	C135.658722,236.184341 136.854706,224.057388 138.300552,211.209915 
	C139.767014,205.344116 140.451462,200.004410 142.299957,195.103745 
	C144.671234,188.817108 147.978485,182.883484 150.882477,176.797760 
z"/>
<path fill="#FFEEE5" opacity="1.000000" stroke="none" 
	d="
M150.917297,176.447723 
	C147.978485,182.883484 144.671234,188.817108 142.299957,195.103745 
	C140.451462,200.004410 139.767014,205.344116 138.302933,210.774384 
	C137.597473,210.406586 137.154358,209.753098 136.394394,209.060150 
	C141.844696,182.142426 154.822891,159.601929 176.741241,142.280853 
	C177.518616,142.644104 177.846603,142.895508 178.174576,143.146927 
	C170.634033,151.420334 162.984329,159.598434 155.624649,168.029724 
	C153.618774,170.327652 152.485748,173.387497 150.917297,176.447723 
z"/>
<path fill="#FEEFE9" opacity="1.000000" stroke="none" 
	d="
M164.057663,162.045715 
	C170.899460,155.179123 177.841919,148.510605 185.036377,142.126068 
	C187.076065,140.315994 189.850845,139.334274 192.656586,138.218170 
	C193.043304,138.680496 193.061951,138.897278 193.080612,139.114044 
	C184.317215,146.981445 175.553802,154.848862 166.524765,162.885468 
	C165.590729,162.820282 164.922318,162.585892 164.057663,162.045715 
z"/>
<path fill="#EAB8B6" opacity="1.000000" stroke="none" 
	d="
M145.998352,262.612274 
	C147.285675,265.780151 148.601120,268.546997 149.611725,271.421051 
	C149.986404,272.486572 149.645660,273.803650 149.295761,275.076172 
	C144.700928,268.240692 141.501205,261.001526 140.895096,252.946060 
	C141.336060,252.794556 141.777039,252.643036 142.218002,252.491516 
	C143.447174,255.745605 144.676346,258.999695 145.998352,262.612274 
z"/>
<path fill="#ECB6B4" opacity="1.000000" stroke="none" 
	d="
M154.975555,271.571960 
	C154.813980,272.780273 154.607910,273.638702 154.401825,274.497101 
	C154.053375,274.644653 153.704941,274.792175 153.356491,274.939697 
	C151.928864,271.199127 150.501236,267.458527 148.993805,263.346558 
	C148.667236,262.180786 148.420471,261.386475 148.121124,260.278259 
	C149.286087,260.499878 151.186707,260.724915 151.596924,261.627380 
	C152.992020,264.696686 153.861115,268.005005 154.975555,271.571960 
z"/>
<path fill="#FEEFE9" opacity="1.000000" stroke="none" 
	d="
M162.317947,162.882584 
	C162.165665,162.670334 162.316925,162.421295 162.787872,162.153687 
	C162.906189,162.353760 162.744171,162.590652 162.317947,162.882584 
z"/>
<path fill="#FEEAE4" opacity="1.000000" stroke="none" 
	d="
M147.071198,256.139801 
	C147.289551,256.075012 147.479630,256.272278 147.600296,256.739563 
	C147.369247,256.795471 147.206589,256.592896 147.071198,256.139801 
z"/>
<path fill="#FEF5F3" opacity="1.000000" stroke="none" 
	d="
M178.505020,143.061554 
	C177.846603,142.895508 177.518616,142.644104 177.036987,142.119232 
	C192.679855,127.988243 211.393860,121.234055 232.021271,118.879700 
	C257.665283,115.952789 281.199493,121.517502 302.654907,135.843048 
	C304.163727,136.850464 305.485718,138.137711 306.785767,139.704636 
	C306.094330,140.428040 305.511688,140.741638 304.929016,141.055237 
	C297.811005,137.578491 290.872620,133.654388 283.540833,130.709900 
	C262.584167,122.293541 240.893906,122.157181 218.983780,125.982910 
	C216.220184,126.465462 213.511307,127.261482 210.152344,128.048096 
	C209.207016,128.327621 209.006882,128.570587 208.927231,128.912811 
	C208.927231,128.912811 208.880981,128.885605 208.856171,128.871185 
	C200.372009,132.580978 191.894562,136.265060 183.468811,140.063828 
	C181.821533,140.806519 180.374741,141.993912 178.505020,143.061554 
z"/>
<path fill="#FFEEE5" opacity="1.000000" stroke="none" 
	d="
M305.108887,141.341171 
	C305.511688,140.741638 306.094330,140.428040 306.988098,139.982117 
	C315.235504,143.814453 320.571838,150.531052 325.954865,157.655914 
	C325.637512,157.975998 325.181732,157.984955 324.385376,157.992096 
	C317.792786,152.535889 311.540771,147.081497 305.108887,141.341171 
z"/>
<path fill="#FFFFFF" opacity="1.000000" stroke="none" 
	d="
M152.993774,376.995209 
	C153.187332,377.835022 153.385925,378.678802 153.584534,379.522583 
	C153.231659,379.553162 152.878799,379.583740 152.525925,379.614319 
	C152.525925,378.865540 152.525925,378.116730 152.766754,377.186096 
	C153.007599,377.004272 152.998795,376.999176 152.993774,376.995209 
z"/>
<path fill="#FEE8E0" opacity="1.000000" stroke="none" 
	d="
M333.270569,170.846161 
	C333.006592,170.544876 332.980194,170.099579 332.963196,169.319321 
	C333.151154,169.556976 333.329681,170.129562 333.270569,170.846161 
z"/>
<path fill="#F9A8A2" opacity="1.000000" stroke="none" 
	d="
M336.467133,174.450745 
	C336.522888,174.417404 336.411377,174.484100 336.467133,174.450745 
z"/>
<path fill="#EDB4B3" opacity="1.000000" stroke="none" 
	d="
M320.589325,298.997955 
	C319.171783,300.899139 317.382385,302.805878 315.288208,304.833649 
	C314.997589,301.448944 316.593781,299.334625 320.589325,298.997955 
z"/>
<path fill="#EDB4B3" opacity="1.000000" stroke="none" 
	d="
M332.798340,281.208496 
	C331.619415,283.959747 330.110016,286.822113 328.294678,289.829651 
	C329.481750,287.089722 330.974823,284.204681 332.798340,281.208496 
z"/>
<path fill="#EDB4B3" opacity="1.000000" stroke="none" 
	d="
M246.929718,328.399170 
	C245.210007,328.682037 243.384094,328.631531 241.270813,328.329773 
	C242.930145,328.074310 244.876831,328.070068 246.929718,328.399170 
z"/>
<path fill="#ECB6B4" opacity="1.000000" stroke="none" 
	d="
M307.805847,310.110535 
	C307.330383,311.119843 306.520813,312.046326 305.385132,313.021851 
	C305.276611,311.591400 303.938873,308.878876 307.805847,310.110535 
z"/>
<path fill="#EDB4B3" opacity="1.000000" stroke="none" 
	d="
M335.666504,277.046570 
	C335.266571,278.321533 334.524017,279.643799 333.460510,281.043304 
	C333.867645,279.778290 334.595795,278.436066 335.666504,277.046570 
z"/>
<path fill="#FEE8E0" opacity="1.000000" stroke="none" 
	d="
M246.497742,192.169235 
	C245.919846,191.899048 245.677368,191.564651 245.165039,191.072998 
	C246.017838,190.546738 247.140457,190.177734 248.624237,189.909882 
	C248.267975,190.709061 247.550552,191.407043 246.497742,192.169235 
z"/>
<path fill="#EDB4B3" opacity="1.000000" stroke="none" 
	d="
M323.771423,294.157593 
	C323.684021,295.099426 323.223877,296.040894 322.454346,297.110229 
	C322.562866,296.211121 322.980743,295.184174 323.771423,294.157593 
z"/>
<path fill="#ECB6B4" opacity="1.000000" stroke="none" 
	d="
M309.783905,309.062531 
	C309.635468,309.411102 309.174561,309.760986 308.413818,310.122314 
	C308.566467,309.777130 309.018951,309.420471 309.783905,309.062531 
z"/>
<path fill="#EDB4B3" opacity="1.000000" stroke="none" 
	d="
M313.990662,305.202026 
	C314.051514,305.415619 313.822876,305.698181 313.357605,306.120667 
	C313.314331,305.930695 313.507751,305.600830 313.990662,305.202026 
z"/>
<path fill="#EDB4B3" opacity="1.000000" stroke="none" 
	d="
M324.852478,293.188324 
	C324.922150,293.389648 324.753510,293.666656 324.345825,294.017914 
	C324.141022,293.733459 324.310120,293.457397 324.852478,293.188324 
z"/>
<path fill="#EDB4B3" opacity="1.000000" stroke="none" 
	d="
M325.974548,292.172180 
	C326.025970,292.383484 325.812836,292.653961 325.352722,293.005310 
	C325.307159,292.801270 325.508575,292.516296 325.974548,292.172180 
z"/>
<path fill="#EDB4B3" opacity="1.000000" stroke="none" 
	d="
M327.746277,290.118469 
	C327.813934,290.287872 327.653229,290.580505 327.279785,291.014465 
	C327.217346,290.851105 327.367615,290.546417 327.746277,290.118469 
z"/>
<path fill="#FEDDD5" opacity="1.000000" stroke="none" 
	d="
M193.423889,139.045837 
	C193.061951,138.897278 193.043304,138.680496 193.008530,138.135788 
	C195.420837,136.537552 197.849274,135.267227 200.648987,134.005188 
	C198.602570,135.668198 196.184875,137.322906 193.423889,139.045837 
z"/>
<path fill="#FEDDD5" opacity="1.000000" stroke="none" 
	d="
M201.342377,134.040619 
	C201.781631,133.680634 202.561493,133.339539 203.685242,132.995697 
	C203.247070,133.348495 202.465027,133.703995 201.342377,134.040619 
z"/>
<path fill="#FEDDD5" opacity="1.000000" stroke="none" 
	d="
M204.301529,133.012970 
	C204.529633,132.845291 205.076523,132.667419 205.756210,132.706726 
	C205.466110,132.950180 205.043213,132.976486 204.301529,133.012970 
z"/>
<path fill="#FEE8E0" opacity="1.000000" stroke="none" 
	d="
M242.752853,191.378296 
	C242.829376,191.566559 242.682785,191.723618 242.347046,191.908981 
	C242.209808,191.707672 242.333755,191.510941 242.752853,191.378296 
z"/>
<path fill="#EAB8B6" opacity="1.000000" stroke="none" 
	d="
M209.155853,128.847687 
	C209.006882,128.570587 209.207016,128.327621 209.765182,128.133209 
	C209.879105,128.388672 209.673019,128.622040 209.155853,128.847687 
z"/>
<path fill="#F9A8A2" opacity="1.000000" stroke="none" 
	d="
M206.536011,130.548279 
	C206.478531,130.582047 206.593491,130.514511 206.536011,130.548279 
z"/>
</svg>